<?xml version="1.0" encoding="UTF-8" standalone="no"?>
<svg
   width="90"
   height="40"
   viewBox="0 0 90 40"
   version="1.1"
   id="svg2"
   sodipodi:docname="dvd.svg"
   inkscape:version="1.3.2 (091e20e, 2023-11-25, custom)"
   inkscape:export-filename="dvd.png"
   inkscape:export-xdpi="96"
   inkscape:export-ydpi="96"
   xmlns:inkscape="http://www.inkscape.org/namespaces/inkscape"
   xmlns:sodipodi="http://sodipodi.sourceforge.net/DTD/sodipodi-0.dtd"
   xmlns="http://www.w3.org/2000/svg"
   xmlns:svg="http://www.w3.org/2000/svg">
  <defs
     id="defs2" />
  <sodipodi:namedview
     id="namedview2"
     pagecolor="#ffffff"
     bordercolor="#666666"
     borderopacity="1.0"
     inkscape:showpageshadow="2"
     inkscape:pageopacity="0.0"
     inkscape:pagecheckerboard="0"
     inkscape:deskcolor="#d1d1d1"
     showgrid="true"
     inkscape:zoom="15.622222"
     inkscape:cx="45"
     inkscape:cy="20"
     inkscape:window-width="1920"
     inkscape:window-height="1057"
     inkscape:window-x="-8"
     inkscape:window-y="-8"
     inkscape:window-maximized="1"
     inkscape:current-layer="layer1">
    <inkscape:grid
       id="grid2"
       units="px"
       originx="0"
       originy="0"
       spacingx="1"
       spacingy="1"
       empcolor="#3f3fff"
       empopacity="0.25098039"
       color="#b1b1ff"
       opacity="0.1254902"
       empspacing="10"
       dotted="false"
       gridanglex="30"
       gridanglez="30"
       visible="true" />
  </sodipodi:namedview>
  <g
     inkscape:groupmode="layer"
     id="layer1"
     inkscape:label="Layer 1">
    <rect
       style="fill:none;stroke:#000000;stroke-width:1"
       id="rect1"
       width="89"
       height="39"
       x="0.5"
       y="0.5"
       inkscape:label="frame" />
    <path
       id="path3"
       style="fill:#000000"
       d="M 18,4 14,22 H 24 C 39.860924,22 43.976254,4 28,4 Z m 4,4 h 6 c 8,0 6,10 -2,10 h -6 z"
       sodipodi:nodetypes="ccssccsscc" />
    <path
       style="fill:#000000"
       d="M 36,4 44,26 60,4 H 54 L 46,16 42,4 Z"
       id="path5"
       sodipodi:nodetypes="ccccccc" />
    <path
       id="path1"
       style="fill:#000000"
       d="M 60,4 56,22 H 66 C 81.860924,22 85.976254,4 70,4 Z m 4,4 h 6 c 8,0 6,10 -2,10 h -6 z"
       sodipodi:nodetypes="ccssccsscc" />
    <path
       id="path2"
       style="fill:#000000"
       d="M 45 26 A 31 5 0 0 0 14 31 A 31 5 0 0 0 45 36 A 31 5 0 0 0 76 31 A 31 5 0 0 0 45 26 z M 45 30 A 7 1 0 0 1 52 31 A 7 1 0 0 1 45 32 A 7 1 0 0 1 38 31 A 7 1 0 0 1 45 30 z " />
  </g>
</svg>
